<svg width="18" height="20" viewBox="0 0 18 20" fill="none" xmlns="http://www.w3.org/2000/svg">
<path d="M1.38462 1.33333C0.619913 1.33333 0 1.93029 0 2.66667V4C0 4.73638 0.619913 5.33333 1.38462 5.33333H2.07692V17.3333C2.07692 18.8061 3.31675 20 4.84615 20H13.1538C14.6833 20 15.9231 18.8061 15.9231 17.3333V5.33333H16.6154C17.3801 5.33333 18 4.73638 18 4V2.66667C18 1.93029 17.3801 1.33333 16.6154 1.33333H11.7692C11.7692 0.596954 11.1493 0 10.3846 0H7.61539C6.85068 0 6.23077 0.596954 6.23077 1.33333H1.38462ZM5.53846 6.66667C5.92081 6.66667 6.23077 6.96514 6.23077 7.33333V16.6667C6.23077 17.0349 5.92081 17.3333 5.53846 17.3333C5.15611 17.3333 4.84615 17.0349 4.84615 16.6667V7.33333C4.84615 6.96514 5.15611 6.66667 5.53846 6.66667ZM9 6.66667C9.38235 6.66667 9.69231 6.96514 9.69231 7.33333V16.6667C9.69231 17.0349 9.38235 17.3333 9 17.3333C8.61765 17.3333 8.30769 17.0349 8.30769 16.6667V7.33333C8.30769 6.96514 8.61765 6.66667 9 6.66667ZM13.1538 7.33333V16.6667C13.1538 17.0349 12.8439 17.3333 12.4615 17.3333C12.0792 17.3333 11.7692 17.0349 11.7692 16.6667V7.33333C11.7692 6.96514 12.0792 6.66667 12.4615 6.66667C12.8439 6.66667 13.1538 6.96514 13.1538 7.33333Z" fill="black"/>
</svg>
