<svg width="120" height="105" viewBox="0 0 120 105" fill="none" xmlns="http://www.w3.org/2000/svg">
<path d="M3.75 67.2502C5.82107 67.2502 7.5 68.9291 7.5 71.0002V89.7502C7.5 93.8923 10.8579 97.2502 15 97.2502H105C109.142 97.2502 112.5 93.8923 112.5 89.7502V71.0002C112.5 68.9291 114.179 67.2502 116.25 67.2502C118.321 67.2502 120 68.9291 120 71.0002V89.7502C120 98.0345 113.284 104.75 105 104.75H15C6.71573 104.75 0 98.0345 0 89.7502V71.0002C0 68.9291 1.67893 67.2502 3.75 67.2502Z" fill="white"/>
<path d="M57.3484 81.9017C58.8128 83.3661 61.1872 83.3661 62.6517 81.9017L85.1517 59.4016C86.6161 57.9372 86.6161 55.5628 85.1517 54.0984C83.6872 52.6339 81.3128 52.6339 79.8483 54.0984L63.75 70.1967V4.25C63.75 2.17893 62.0711 0.5 60 0.5C57.9289 0.5 56.25 2.17893 56.25 4.25V70.1967L40.1516 54.0984C38.6872 52.6339 36.3128 52.6339 34.8484 54.0984C33.3839 55.5628 33.3839 57.9372 34.8484 59.4016L57.3484 81.9017Z" fill="white"/>
</svg>
